<svg xmlns="http://www.w3.org/2000/svg" width="39.669" height="42" viewBox="0 0 39.669 42"><defs><style>.a{fill:none;}.b{fill:#969696;}</style></defs><g transform="translate(-742 -453)"><path class="a" d="M0,0H39.669V42H0Z" transform="translate(742 453)"/><path class="b" d="M26.7,25.321H25.2l-.531-.548a13.684,13.684,0,0,0,2.977-8.583C27.647,8.9,22.13,3,15.323,3S3,8.9,3,16.19s5.517,13.19,12.323,13.19a11.809,11.809,0,0,0,8.02-3.186l.512.568v1.6l4.968,5.978,3.048-3.226Zm-11.375,0c-4.721,0-8.532-4.079-8.532-9.131S10.6,7.058,15.323,7.058s8.532,4.079,8.532,9.131S20.044,25.321,15.323,25.321Z" transform="translate(742 453)"/></g></svg>